<?xml version="1.0" standalone="no"?>
<!DOCTYPE svg PUBLIC "-//W3C//DTD SVG 20010904//EN"
 "http://www.w3.org/TR/2001/REC-SVG-20010904/DTD/svg10.dtd">
<svg version="1.0" xmlns="http://www.w3.org/2000/svg"
 width="219.000000pt" height="219.000000pt" viewBox="0 0 219.000000 219.000000"
 preserveAspectRatio="xMidYMid meet">
<metadata>
Created by potrace 1.11, written by Peter Selinger 2001-2013
</metadata>
<g transform="translate(0.000000,219.000000) scale(0.100000,-0.100000)"
fill="#000000" stroke="none">
<path d="M860 2120 c-14 -4 -39 -8 -55 -9 -39 -1 -96 -32 -160 -85 -27 -23
-88 -67 -135 -98 -98 -66 -310 -269 -381 -364 -74 -101 -111 -200 -115 -309
-3 -80 2 -109 40 -260 24 -94 49 -183 56 -200 6 -16 18 -68 26 -115 20 -113
50 -216 80 -267 60 -104 213 -199 438 -272 206 -67 353 -85 580 -69 167 11
277 39 396 98 121 61 264 211 410 429 122 183 146 270 137 496 -5 130 -15 181
-78 384 -43 137 -179 316 -338 443 -120 96 -169 115 -381 147 -69 11 -136 24
-150 29 -51 19 -329 36 -370 22z"/>
</g>
</svg>
